<svg xmlns="http://www.w3.org/2000/svg" viewBox="0 0 938 611"><clipPath id="a"><path d="M0 0h938v611H0V0Z"/></clipPath><g fill="none" stroke-width="3" clip-path="url(#a)"><path stroke="#14517b" d="M150 94h-7l-3 1-3 2-1 2-1 2v1l1 5 2 4 2 3 3 3 4 2 4 1" vector-effect="non-scaling-stroke"/><path stroke="#145581" d="m151 120-19-3h-2l-1 1-2 5-1 7 1 5 3 5 3 2 6 3 9 1 18 2" vector-effect="non-scaling-stroke"/><path stroke="#0f3551" d="M166 148v3" vector-effect="non-scaling-stroke"/><path stroke="#145581" d="M166 151h-36l-4 1-2 2-2 2v1l1 7 3 5 5 5 3 1 3 1 6 1 5-1 25-3" vector-effect="non-scaling-stroke"/><path stroke="#0e3959" d="m173 173 13-1h1v1l-8 3" vector-effect="non-scaling-stroke"/><path stroke="#1b5b86" d="m179 176-44 9-5 2v7l2 6 3 5 5 4 3 1h5l7-2h1l16-5 20-8 5-1 3-2h1" vector-effect="non-scaling-stroke"/><path stroke="#0e3959" d="m201 192 6-3 6-2h10v1l-13 23" vector-effect="non-scaling-stroke"/><path stroke="#1b5b86" d="m210 211-5-7-3-7-2-1h-1l-7 3-25 12-25 11 3 7 4 5 5 4 5 2h3l3-1 17-9 11-7 15-9" vector-effect="non-scaling-stroke"/><path stroke="#0e3959" d="m208 214 1 1" vector-effect="non-scaling-stroke"/><path stroke="#2d698d" d="m209 215-14 11-9 7-8 7-15 10-1 1v1l5 6 5 5 5 5 6 3h1l15-12 19-17 5-5" vector-effect="non-scaling-stroke"/><path stroke="#0e3959" d="m223 237 6-3 1 1-1 3" vector-effect="non-scaling-stroke"/><path stroke="#145581" d="m229 238-31 32-1 1-5 5-1 2-1 1 2 6 4 5 6 4 6 3 1-1 18-22 16-23" vector-effect="non-scaling-stroke"/><path stroke="#0e3959" d="m243 251 11-5h1l-7 8" vector-effect="non-scaling-stroke"/><path stroke="#14517b" d="m248 254-33 46" vector-effect="non-scaling-stroke"/><path stroke="#0f3551" d="m215 300-6 6-8 11-9 10-5 5M751 332l-19-22-4-4-4-3" vector-effect="non-scaling-stroke"/><path stroke="#145581" d="m724 303-5-7-5-7-25-33" vector-effect="non-scaling-stroke"/><path stroke="#0e3959" d="m689 256-14-16v-1l5 4 5 4 4 3 5 2" vector-effect="non-scaling-stroke"/><path stroke="#145581" d="m694 252 14 20 15 18 6 7 2 1 7-5 5-4 2-3 1-3 1-3-1-3-2-3-17-16-16-17" vector-effect="non-scaling-stroke"/><path stroke="#0e3959" d="m711 241 1-2v-1l3-1" vector-effect="non-scaling-stroke"/><path stroke="#2d698d" d="m715 237 1 2 22 20 16 15h1l6-3 5-4 5-5 3-4 3-5v-1l-11-7-11-8-3-2-15-12-10-9" vector-effect="non-scaling-stroke"/><path stroke="#0e3959" d="m727 214-4-6-1-2-5-17h-1l1-2h2l7 1 7 3 4 1" vector-effect="non-scaling-stroke"/><path stroke="#1b5b86" d="m737 192 34 12 8 3 1 1 8 2h10l3-2 1-2 3-4 2-5 1-7v-1h-1l-51-14-7-1-2-1" vector-effect="non-scaling-stroke"/><path stroke="#0e3959" d="m747 173 1-1v-1" vector-effect="non-scaling-stroke"/><path stroke="#145581" d="m748 171 12 2 10 2 14 2 13 2h6l6-2 3-3 2-4 2-4v-5l-1-5v-1l-41-3" vector-effect="non-scaling-stroke"/><path stroke="#0e3959" d="M774 152v-3" vector-effect="non-scaling-stroke"/><path stroke="#145581" d="M774 149h6l11-1 8-2 5-2 4-2 3-4 2-3v-7l-1-3-2-3-2-2h-6l-29 5" vector-effect="non-scaling-stroke"/><path stroke="#14517b" d="M773 125h-1l1-1 19-6 7-4 2-1 1-2v-3l-1-3-2-4-4-3-3-2h-6M529 100v3l-3 5" vector-effect="non-scaling-stroke"/><path stroke="#217bb5" d="m526 108-7-5-7-2-11-3v-1l-7-1h-4l-10-1-10 1-10 2-10 3-4 2-4 1-4 2v2" vector-effect="non-scaling-stroke"/><path stroke="#14517b" d="m438 108-24-4-19-2" vector-effect="non-scaling-stroke"/><path stroke="#155580" d="m191 115-3 6-1 7" vector-effect="non-scaling-stroke"/><path stroke="#1a75b1" d="m187 128-18-3-18-5" vector-effect="non-scaling-stroke"/><path stroke="#1b5b86" d="m526 108-1 4-1 4v2" vector-effect="non-scaling-stroke"/><path stroke="#7eb2d1" d="m524 118-11-6-5-1-5-1h-10l-8 2-11 3-6 1" vector-effect="non-scaling-stroke"/><path stroke="#1b5b86" d="m468 116-14-4-16-4" vector-effect="non-scaling-stroke"/><path stroke="#1a75b1" d="m773 125-7 1-13 2" vector-effect="non-scaling-stroke"/><path stroke="#145988" d="m753 128-1-4-3-6v-1l1-3" vector-effect="non-scaling-stroke"/><path stroke="#2d698d" d="m537 146-8 2-1-1-1-3" vector-effect="non-scaling-stroke"/><path stroke="#718997" d="m527 144 2-4 2-4v-1l-5-1h-8l-3 1-6 3h-6l-2-2-2-2-2-2-2-2-15-1-3 1-1 1v2l-1 4v4l1 5 2 4 2 4 4 4 3 4 4 3 2 1 16 10" vector-effect="non-scaling-stroke"/><path stroke="#2d698d" d="m509 176 11 6" vector-effect="non-scaling-stroke"/><path stroke="#14517b" d="m520 182-6 2-6 1h-6l-5-1-10-2-10-3-11-6" vector-effect="non-scaling-stroke"/><path stroke="#1b5b86" d="m466 173-10-9-8-9-4-7-3-7-1-8v-1l-14-4-12-5h-1" vector-effect="non-scaling-stroke"/><path stroke="#718997" d="m468 116 4 2 9 3 11 2h4l4-2 3-1h3l5 1 5 3 5 2 8 1-2-3-2-3-1-3" vector-effect="non-scaling-stroke"/><path stroke="#155987" d="m209 123-2 3-1 4 1 9 3 6 2 4 3 2 4 2 8 3 8 1 4 2h2v1l-29 6" vector-effect="non-scaling-stroke"/><path stroke="#0e3d5e" d="m212 166-17 3h-2l-2 1" vector-effect="non-scaling-stroke"/><path stroke="#155987" d="m191 170-1-5-1-2-1-8v-1l-1-1-21-2M166 148l27 2h1v-1l-4-6-2-6-1-4v-5" vector-effect="non-scaling-stroke"/><path stroke="#145d8f" d="m753 128-2 10-1 5-2 4-2 3 1 1h5l22-2M774 152l-22 1h-1l-1 2-1 6-1 6-1 3v1h1" vector-effect="non-scaling-stroke"/><path stroke="#1a6393" d="M747 173h-3l-7 19" vector-effect="non-scaling-stroke"/><path stroke="#2c719b" d="m727 214-15 20v1l3 2" vector-effect="non-scaling-stroke"/><path stroke="#145d8f" d="m711 241-2-2h-1l-14 13M689 256l-6 6-6 5-6 4" vector-effect="non-scaling-stroke"/><path stroke="#0e3d5e" d="m671 271-9-8-3-2h-3l-4 1-4 3-4 4-4 2-12 4-3 2-8 4-5 1-5 1" vector-effect="non-scaling-stroke"/><path stroke="#145988" d="m607 283 5-4 2-2 2-2v-6l-1-5-2-9v-6l1 1 7 13 4 7 2 1 2 1h3l3-1 3-1 5-3 1-2 1-2 1-4-1-3-4-9v-1l1 2 5 5 3 3 4 1 3 1 5-1 4-2 2-2 1-2v-5l-1-4-1-3-11-14h1l11 7 6 3 4 1h6l4-2 2-2 2-3 1-1 1-3v-2l-2-4-5-4-9-7h-1 1l8 3 7 2h4l5-1 4-3 3-4 3-6v-1l-1-1-22-14v-1l17 4h2l5-1 4-4 4-6 3-7v-1l-25-5-4-2" vector-effect="non-scaling-stroke"/><path stroke="#1a6393" d="m695 160 1-1" vector-effect="non-scaling-stroke"/><path stroke="#145d8f" d="m696 159 17-3 8-3 2-1 3-2 1-3 2-3 2-10v-4l-1-4-1-2" vector-effect="non-scaling-stroke"/><path stroke="#217fbc" d="m238 135 2 12 3 12 3 8 3 8 3 5" vector-effect="non-scaling-stroke"/><path stroke="#1a75b1" d="m252 180-2 1h-1" vector-effect="non-scaling-stroke"/><path stroke="#145d8f" d="m249 181-17 4h-6l-4-2-3-3-3-4-4-10" vector-effect="non-scaling-stroke"/><path stroke="#217bb5" d="m466 173 3 21-1 13v251l-1 1-5-6-4-4-21-25-9-13-8-15" vector-effect="non-scaling-stroke"/><path stroke="#1b5e8b" d="m412 376-1-3-2-5" vector-effect="non-scaling-stroke"/><path stroke="#1a6393" d="m409 368-6-17" vector-effect="non-scaling-stroke"/><path stroke="#1b5e8b" d="m403 351-3-12" vector-effect="non-scaling-stroke"/><path stroke="#1a6393" d="m400 339-8-29" vector-effect="non-scaling-stroke"/><path stroke="#1b5e8b" d="m392 310-2-8" vector-effect="non-scaling-stroke"/><path stroke="#217bb5" d="m390 302-2-11-4-21-1-10h-6l-8-1h-7l-8-2-16-4-10-5-14-7-17-11-7-6-5-4-8-8-13-15-12-17" vector-effect="non-scaling-stroke"/><path stroke="#217fbc" d="m696 159 3-19-1-1-1-2" vector-effect="non-scaling-stroke"/><path stroke="#90c1d9" d="m527 144-18 22-1 2v2l1 6" vector-effect="non-scaling-stroke"/><path stroke="#217bb5" d="m695 160-3 7-6 14-9 13-9 11-6 8-10 10-10 8-4 2-8 6-18 9-18 8-9 3-9 1-12 1h-13l-1-1v-15l-1-20-1-9-2-11-2-4-1-3-5-7" vector-effect="non-scaling-stroke"/><path stroke="#3993c8" d="m538 191 1-1" vector-effect="non-scaling-stroke"/><path stroke="#2c719b" d="M533 156h-1v1" vector-effect="non-scaling-stroke"/><path stroke="#3389bd" d="m538 191-18-9" vector-effect="non-scaling-stroke"/><path stroke="#145d8f" d="m191 170-18 3" vector-effect="non-scaling-stroke"/><path stroke="#155580" d="m607 283-5 1h-4l-1-1-4-8-3-16h-1l1 13v6l-2 6-4 6-5 5-5 3h-2l-1-1h-1l-2-3-1-5h-2l-1 2-3 4-3 4-4 2-3 2h-6l-2 8" vector-effect="non-scaling-stroke"/><path stroke="#145988" d="m543 311-8 30" vector-effect="non-scaling-stroke"/><path stroke="#155580" d="m535 341-3 11" vector-effect="non-scaling-stroke"/><path stroke="#145988" d="m532 352-4 15" vector-effect="non-scaling-stroke"/><path stroke="#155580" d="m528 367-3 8v1h-1v1M538 428l1 3-1 3-1 2-4 7-5 5-1 1-2 1h-2l1 4v1l-3 3-4 3-6 4" vector-effect="non-scaling-stroke"/><path stroke="#145988" d="m511 465-2-3-13-33h-2l-2 3v2l9 25 2 5" vector-effect="non-scaling-stroke"/><path stroke="#155580" d="m503 464 1 1 3 7v3l-1 1v1l-5 4-7 3-7 3-1-1v-2l-3-16-4-19h-1l-1 1v1l6 38-1 1-1 1-7 1h-13l-7-1-1-1v-2l5-34v-5h-1l-8 33v4h-1l-6-2-5-3-6-4-2-3v-3l1-4-1-1h-3l-3-2-6-4-5-5v-1l1-3v-1h-1l-2-1-8-8-2-4-2-3v-1l1-5" vector-effect="non-scaling-stroke"/><path stroke="#145988" d="M249 181v1l-23 14-1 1v2l2 4 3 4 4 3 3 1 3 1h6l7-3 7-4h1l-1 1-11 8-2 2-2 3-1 2v5l2 3 3 3 4 2 5 1 6-2 6-3 8-5 3-2-5 7-6 7-2 5v6l1 3 3 3 5 2 4 1" vector-effect="non-scaling-stroke"/><path stroke="#0e3d5e" d="m281 257-11 10-4 2" vector-effect="non-scaling-stroke"/><path stroke="#145988" d="m266 269-18-15" vector-effect="non-scaling-stroke"/><path stroke="#145d8f" d="m243 251-13-13h-1" vector-effect="non-scaling-stroke"/><path stroke="#2c719b" d="m223 237 2-2 1-1-1-2-1-2-6-8-6-7-1-1-2 1" vector-effect="non-scaling-stroke"/><path stroke="#1a6393" d="m208 214 1-2 1-1M201 192l-8-18-2-1-12 3" vector-effect="non-scaling-stroke"/><path stroke="#155580" d="m390 302-6-1-4-2-4-4-5-6v-1l-2-4v-1 1l-1 8-1 3-1 1-1 1h-2l-4-2-3-3-4-4-4-6-1-6v-10l1-7v-1l-1 1-4 17-2 5-4 2h-6l-4-3-4-2v-1l-1-4-1-4v-5l2-7 1-4v-1l1-2v-1l-1 1-7 12-5 7-2 1-2 1h-6l-5-3-3-3-2-4-1-2 1-3 3-9 1-1-1-1v1l-3 5-4 4-3 1-4 1" vector-effect="non-scaling-stroke"/><path stroke="#0e3d5e" d="m392 310-18-3-1 1 2 22 1 5 1 1 6 1 17 2M403 351l-6 1h-12l-6-1h-1v1l3 21 1 2 2 2 3 1 3 1 4-1 5-1 5-3 5-6M340 396l-1-6v-4l1-16-1-3v-4" vector-effect="non-scaling-stroke"/><path stroke="#2d6d93" d="m339 363 1-18h-1l-7-1-8-2-11-4-4 19" vector-effect="non-scaling-stroke"/><path stroke="#0e3d5e" d="m309 357-8 32M300 387l2-18 1-8v-8" vector-effect="non-scaling-stroke"/><path stroke="#2d6d93" d="m303 353 5-18-1-1-11-3-7-3-6-4h-1l-1 1-3 8-2 8" vector-effect="non-scaling-stroke"/><path stroke="#0e3d5e" d="m276 341-3 6-6 14-4 11-2 3" vector-effect="non-scaling-stroke"/><path stroke="#0f3551" d="M261 375h-1v1" vector-effect="non-scaling-stroke"/><path stroke="#155580" d="m215 300 2 5 2 3 3 2 9 6h1l2 1 2 1 2-1 4-6 21-37 3-5" vector-effect="non-scaling-stroke"/><path stroke="#155987" d="m724 303-5 6-7 6-9 4h-2l-2-1-9-16-19-31" vector-effect="non-scaling-stroke"/><path stroke="#0e3d5e" d="m677 377-4-7-3-7-2-5-2-7-3-4-2-3" vector-effect="non-scaling-stroke"/><path stroke="#2d6d93" d="m661 344-1-9-4-9-15 6-6 2-5 1-1 1 6 17" vector-effect="non-scaling-stroke"/><path stroke="#0e3d5e" d="m635 353-2 2v1l2 12 2 14 1 6h-1l-9-30" vector-effect="non-scaling-stroke"/><path stroke="#2d6d93" d="M628 358v-2l-2-8-2-9-9 3-9 2-8 2h-1l1 18" vector-effect="non-scaling-stroke"/><path stroke="#0e3d5e" d="m598 364-1 9v22h-1l-5-28" vector-effect="non-scaling-stroke"/><path stroke="#155580" d="M591 367v-18l-1-1-6 2h-20l-1 21" vector-effect="non-scaling-stroke"/><path stroke="#0e3d5e" d="m563 371-3 22M528 367l1 5 1 2 3 3 4 1 6 2h5l4-2 2-1 1-2 3-23h-5l-10 1-11-1M535 341h8l9-1 1-1 4-1 3-1 1-3 1-13 1-12v-1l-3 1-8 2h-9" vector-effect="non-scaling-stroke"/><path stroke="#2c719b" d="m303 353-2 3h-2l-3-1h-1l-1-1-8-2-5-3-3-3-2-3v-2M661 344l-2 4-8 4-11 4h-3l-1-1-1-2M339 363l-1 2-2 1-4 1-8-1-7-1-4-2-2-3-2-3M628 358l-2 4-5 3-7 2-7 1h-6l-1-2-2-2" vector-effect="non-scaling-stroke"/><path stroke="#0e3959" d="M261 376v-1" vector-effect="non-scaling-stroke"/><path stroke="#145988" d="m563 371 12 1 11-1 3-2 2-2" vector-effect="non-scaling-stroke"/><path stroke="#155580" d="m549 444-7 5-7 6-3 2-1 1 3 6v1l-1 1-7 4-7 4-6 2h-1v1l2 7v2l-2 3-1 1-4 3-10 3-9 2h-1v1l2 12 2 12 1 1h2" vector-effect="non-scaling-stroke"/><path stroke="#0f3551" d="m494 524-3 2-1 3-1 2" vector-effect="non-scaling-stroke"/><path stroke="#155580" d="m489 531-3-25h-1l-10 2h-9l-8-1-7-2h-1v1l-3 19v8" vector-effect="non-scaling-stroke"/><path stroke="#0f3551" d="m447 533-3-5v-4" vector-effect="non-scaling-stroke"/><path stroke="#155580" d="m444 524 5-26-1-1h-6l-9-3-9-4h-1v-2l-1-3v-3" vector-effect="non-scaling-stroke"/><path stroke="#155987" d="m422 482 2-6-1-1-6-1-6-3-7-5-1-1v-2l2-5v-1l-4-2-4-3-9-8" vector-effect="non-scaling-stroke"/><path stroke="#0e3d5e" d="M503 464h3l1 1h4" vector-effect="non-scaling-stroke"/><path stroke="#14517b" d="m563 466-1 5-2 3-5 4-7 4-3 1h-3v2l1 4h1v1l-1 1-9 4-7 3-9 1-1 4v1l2 4v4l-1 2-1 1-5 3-11 4-7 2" vector-effect="non-scaling-stroke"/><path stroke="#1a75b1" d="M422 482v1l-4 10-2 3-2 2" vector-effect="non-scaling-stroke"/><path stroke="#145581" d="m414 498-9-2-6-2-5-2-1-3 1-6h-3l-4-1-5-3-4-3-3-5-1-5" vector-effect="non-scaling-stroke"/><path stroke="#14517b" d="m414 498 4 1-1 8v5l1 3 2 2 6 3 9 3 9 1M447 533l17 4h4l10-1 10-3 1-1v-1" vector-effect="non-scaling-stroke"/><path stroke="#1b5b86" d="m574 482-5 5-4 5-5 4-6 3h-1l-1 1v1l3 5" vector-effect="non-scaling-stroke"/><path stroke="#14517b" d="m555 506-3 1-2 1-7 3-8 4-10 2-1 1 3 10v1l-10 4-10 3-6 2-7 1 2 9 3 9 2 2 3 1 5-1h2l10-4 5-2 4-4 1-2-1-5v-2l1-2v-1l10-1 8-3 6-4 2-3 1-3 1-2h1l1 4 2 1h3" vector-effect="non-scaling-stroke"/><path stroke="#0e3959" d="m498 583-3-16-2-17-1-1-9 3-10 1-6 1-7-1-8-2-9-3v1l-1 3-5 31" vector-effect="non-scaling-stroke"/><path stroke="#14517b" d="M374 526h1l1-4h1l2 3 2 3 6 4 8 4 9 1h2l1-1 1-4h1l-1 4-1 1-1 1-1 1 1 1v6l1 3 1 3 4 2 5 3 7 1 8 1h1l1-1 4-6 2-6 1-6v-1l-7-1-7-2-16-6-1-1h-1l3-11-1-1-9-3-9-4-11-4" vector-effect="non-scaling-stroke"/><path stroke="#1b5b86" d="m382 506 2-6v-1l-6-3-4-3-4-3-7-7" vector-effect="non-scaling-stroke"/><path stroke="#217bb5" d="m578 525-4-1-4-1-4-3-4-3-3-3-2-4-2-4M382 506l-3 6-3 3-5 5-5 4-4 1h-4" vector-effect="non-scaling-stroke"/></g><path fill="#0e314b" d="M150 94h-7l-3 1-3 2-1 2-1 2v1l1 5 2 4 2 3 3 3 4 2 4 1-19-3h-2l-1 1-2 5-1 7 1 5 3 5 3 2 6 3 9 1 18 2v3h-36l-4 1-2 2-2 2v1l1 7 3 5 5 5 3 1 3 1 6 1 5-1 25-3 13-1h1v1l-8 3-44 9-5 2v7l2 6 3 5 5 4 3 1h5l7-2h1l16-5 20-8 5-1 3-2h1l6-3 6-2h10v1l-13 23-5-7-3-7-2-1h-1l-7 3-25 12-25 11 3 7 4 5 5 4 5 2h3l3-1 17-9 11-7 15-9 1 1-14 11-9 7-8 7-15 10-1 1v1l5 6 5 5 5 5 6 3h1l15-12 19-17 5-5 6-3 1 1-1 3-31 32-1 1-5 5-1 2-1 1 2 6 4 5 6 4 6 3 1-1 18-22 16-23 11-5h1l-7 8-33 46-6 6-8 11-9 10-5 5v-1l-2 1-3 4-7 4-3 1h-7l-4-2-9-5-7-6-4-4-2-5v-2l2-4 4-6 5-5 1-1h-1l-9 5-6 2h-10l-3-1-7-3-6-4-6-4-4-5-2-4 1-3 3-5 3-4 11-9v-1h-1l-4 2-5 1-7 1h-6l-9-2-7-4-8-6-7-7-2-3v-2l3-3 4-2 5-2h1l30-11v-1h-1l-5 1-6 1H80l-5-1-8-1-7-2-7-3-7-4-6-5-2-1-5-6-4-5v-3l3-3 3-2 8-2 41-6h6v-1h-8l-6-1h-3l-9-2-13-3-11-5-10-5-8-7-4-4-3-5-3-4-2-5v-6h1l3-2h4l4 1 15 1 6 1 3 1h10l5 1h5l1 1h10l2 1h3l1-1h-2l-17-7-16-8-10-7-8-7-6-8-5-8-4-10v-9l1-3 3-1h3l10 4 8 4 8 4 6 2 4 2 35 15h1l-3-2-2-2-3-2-5-4-4-5-7-7-5-5-5-9-5-9-2-9-1-9V28l2-2 1-1h2l3 2 13 11 6 6 4 4 3 3 22 17 20 14 22 12ZM751 332l-19-22-4-4-4-3-5-7-5-7-25-33-14-16v-1l5 4 5 4 4 3 5 2 14 20 15 18 6 7 2 1 7-5 5-4 2-3 1-3 1-3-1-3-2-3-17-16-16-17 1-2v-1l3-1 1 2 22 20 16 15h1l6-3 5-4 5-5 3-4 3-5v-1l-11-7-11-8-3-2-15-12-10-9-4-6-1-2-5-17h-1l1-2h2l7 1 7 3 4 1 34 12 8 3 1 1 8 2h10l3-2 1-2 3-4 2-5 1-7v-1h-1l-51-14-7-1-2-1 1-1v-1l12 2 10 2 14 2 13 2h6l6-2 3-3 2-4 2-4v-5l-1-5v-1l-41-3v-3h6l11-1 8-2 5-2 4-2 3-4 2-3v-7l-1-3-2-3-2-2h-6l-29 5h-1l1-1 19-6 7-4 2-1 1-2v-3l-1-3-2-4-4-3-3-2h-6l14-7 12-8 26-19 27-24 3-2 3-3 1-1 7-5 3-1h1l2 1 1 3 1 8-1 5v6l-3 9-4 9-5 8-6 7-2 3-4 5-15 12h-1l-1 1 1 1 30-11 29-12 14-5h1l1 1 2 3 1 3-1 5-3 10-4 7-5 6-5 6-7 5-13 9-15 7-16 6v1h3l3-1h9l2-1h7l5-1 11-1 14-2h6l7-1h3l2 2 1 3v1l-2 5-2 5-5 7-6 6-5 3-6 4-12 6-13 4-10 2-11 1-3 1h-1l-6-1h-1v1l6 1h3l2 1 9 2 30 4h1l8 2 2 1 2 2h1v3l-3 5-5 6-6 5-9 6-9 3-9 2-5 1h-6l-6-1h-5l-5-1v1l30 12 7 4 1 1v4l-1 2-7 6-7 6-8 4-7 2h-13l-2-1-8-3-1 1 4 3 6 7 4 4v1l2 3 1 2v4l-2 2-3 3-8 6-10 5-5 2h-5l-6-1-5-1-6-3-5-3h-1v1l5 5 5 6 3 5v4l-1 1-2 3-2 3-9 6-10 5-3 1h-3l-6-1-5-4-7-6Z"/><path fill="#1a71aa" d="M529 100v3l-3 5-7-5-7-3-11-2v-1l-7-1h-4l-10-1-10 1-10 2-10 3-4 2-4 1-4 2v2l-24-4-19-2-1-1-8-4-1-1h1l13-8 14-7 15-5 8-2 5-1 5-1h25l6 1h7l10 2 9 4 10 5 8 7zM150 94l7 4 7 4 7 3 9 4 5 3 6 3-3 6-1 7-18-3-18-5-4-1-4-2-3-3-2-3-2-4-1-5v-1l1-2 1-2 3-2 3-1h7Z"/><path fill="#2784c0" d="m526 108-1 4-1 4v2l-11-6-5-1-5-1h-10l-8 2-11 3-6 1-14-4-16-4v-2l4-2 4-1 4-2 10-3 10-2 10-1 10 1h4l7 1v1l11 3 7 2 7 5Z"/><path fill="#1a71aa" d="m773 125-7 1-13 2-1-4-3-6v-1l1-3 36-18h6l3 2 4 3 2 4 1 3v3l-1 2-2 1-7 4-19 6-1 1z"/><path fill="#0e314b" d="m537 111 2 8v9l1 1 20-2 22-2 6-1 3-1v-2h-1l-8-3-10-3-8-2h-17l-5-2h14l4 1 5 1h5l8 2 8 3 7 3v1l-2 1-14 7-16 7-23 8-1 1-8 2-1-1-1-3 2-4 2-4v-1l-5-1h-8l-3 1-6 3h-6l-2-2-2-2-2-2-2-2-15-1-3 1-1 1v2l-1 4v4l1 5 2 4 2 4 4 4 3 4 4 3 2 1 16 10 11 6-6 2-6 1h-6l-5-1-10-2-10-3-11-6-10-9-8-9-4-7-3-7-1-8v-1l-14-4-12-5h-1v-1l-5-3-8-6-9-7-3-2v-1l1-1h6l19 2 24 4 16 3 14 5 4 2 9 3 11 2h4l4-2 3-1h3l5 1 5 3 5 2 8 1-2-3-2-3-1-4v-1l1-4 1-4 3-5v-3l4 6z"/><path fill="#d4e0e2" d="m524 118 1 3 2 3 2 3-8-1-5-2-5-3-5-1h-3l-3 1-4 2h-4l-11-2-9-3-4-2 6-1 11-3 8-2h10l5 1 5 1 11 6Z"/><path fill="#0d4166" d="m542 111 6 1 10 1h6l8 2 11 3 8 3v2l-3 1-6 1-22 2-20 2h-1v-9l-2-9h3z"/><path fill="#0f3856" d="m209 123-2 3-1 4 1 9 3 6 2 4 3 2 4 2 8 3 8 1 4 2h2v1l-29 6-17 3h-2l-2 1-1-5-1-2-1-8v-1l-1-1-21-2v-3l27 2h1v-1l-4-6-2-6-1-4v-5l1-7 3-6 18 8Z"/><path fill="#0d4166" d="m750 114-1 3v1l3 6 1 4-2 10-1 5-2 4-2 3 1 1h5l22-2v3l-22 1h-1l-1 2-1 6-1 6-1 3v1h1v1l-1 1h-3l-7 19-4-1-7-3-7-1h-2l-1 2h1l5 17 1 2 4 6-15 20v1l3 2-3 1v1l-1 2-2-2h-1l-14 13-5-2-4-3-5-4-5-4v1l14 16-6 6-6 5-6 4-9-8-3-2h-3l-4 1-4 3-4 4-4 2-12 4-3 2-8 4-5 1-5 1 5-4 2-2 2-2v-6l-1-5-2-9v-6l1 1 7 13 4 7 2 1 2 1h3l3-1 3-1 5-3 1-2 1-2 1-4-1-3-4-9v-1l1 2 5 5 3 3 4 1 3 1 5-1 4-2 2-2 1-2v-5l-1-4-1-3-11-14h1l11 7 6 3 4 1h6l4-2 2-2 2-3 1-1 1-3v-2l-2-4-5-4-9-7h-1 1l8 3 7 2h4l5-1 4-3 3-4 3-6v-1l-1-1-22-14v-1l17 4h2l5-1 4-4 4-6 3-7v-1l-25-5-4-2 1-1 17-3 8-3 2-1 3-2 1-3 2-3 2-10v-4l-1-4-1-2 21-10Z"/><path fill="#1a79b7" d="m151 120 18 5 18 3v5l1 4 2 6 4 6v1h-1l-27-2-18-2-9-1-6-3-3-2-3-5-1-5 1-7 2-5 1-1h2l19 3ZM774 149l-22 2h-5l-1-1 2-3 2-4 1-5 2-10 13-2 7-1 29-5h6l2 2 2 3 1 3v7l-2 3-3 4-4 2-5 2-8 2-11 1h-6ZM209 123l29 12 2 12 3 12 3 8 3 8 3 5-2 1h-1l-17 4h-6l-4-2-3-3-3-4-4-10 29-6v-1h-2l-4-2-8-1-8-3-4-2-3-2-2-4-3-6-1-9 1-4 2-3Z"/><path fill="#2784c0" d="M413 123h1l12 5 14 4v1l1 8 3 7 4 7 8 9 10 9 3 21-1 13v251l-1 1-5-6-4-4-21-25-9-13-8-15-8-20-1-3-2-5-6-17-3-12-8-29-2-8-2-11-4-21-1-10h-6l-8-1h-7l-8-2-16-4-10-5-14-7-17-11-7-6-5-4-8-8-13-15-12-17-3-5-3-8-3-8-3-12-2-12 20 7 14 6 19 12 20 12 13 7 14 5 14 4 14 2 8 1h13l1-1 5-14 4-13 5-19 4-10 5-10 2-1Z"/><path fill="#1a79b7" d="m729 124 1 2 1 4v4l-2 10-2 3-1 3-3 2-2 1-8 3-17 3 3-19-1-1-1-2 32-13Z"/><path fill="#d4e0e2" d="m527 144-18 22-1 2v2l1 6-16-10-2-1-4-3-3-4-4-4-2-4-2-4-1-5v-4l1-4v-2l1-1 3-1 15 1 2 2 2 2 2 2 2 2h6l6-3 3-1h8l5 1v1l-2 4-2 4Z"/><path fill="#2784c0" d="m697 137 1 2 1 1-3 19-1 1-3 7-6 14-9 13-9 11-6 8-10 10-10 8-4 2-8 6-18 9-18 8-9 3-9 1-12 1h-13l-1-1v-15l-1-20-1-9-2-11-2-4-1-3-5-7 1-1v1l2 1h10l5-1h12l6-1h5l10-3 14-4 15-6 15-8 17-11 10-6 11-6 12-4 14-5Z"/><path fill="#4ba1cf" d="m527 144 1 3 1 1 8-2-2 5-3 6-1 4-1 3v7l1 3 1 2 2 5 5 9-1 1-18-9-11-6-1-6v-2l1-2z"/><path fill="#1a79b7" d="m166 151 21 2 1 1v1l1 8 1 2 1 5-18 3-25 3-5 1-6-1-3-1-3-1-5-5-3-5-1-7v-1l2-2 2-2 4-1h36ZM774 152l41 3v1l1 5v5l-2 4-2 4-3 3-6 2h-6l-13-2-14-2-10-2-12-2h-1v-1l1-3 1-6 1-6 1-2h1l22-1Z"/><path fill="#1a71aa" d="m695 160 4 2 25 5v1l-3 7-4 6-4 4-5 1h-2l-17-4v1l22 14 1 1v1l-3 6-4 4-3 3-5 1h-4l-7-2-8-3h-1 1l9 7 5 4 2 4v2l-1 3-1 1-2 3-2 2-4 2h-6l-4-1-6-3-11-7h-1l11 14 1 3 1 4v5l-1 2-2 2-4 2-5 1-3-1-4-1-3-3-5-5-1-2v1l4 9 1 3-1 4-1 2-1 2-5 3-3 1-3 1h-3l-2-1-2-1-4-7-7-13-1-1v6l2 9 1 5v6l-2 2-2 2-5 4-5 1h-4l-1-1-4-8-3-16h-1l1 13v6l-2 6-4 6-5 5-5 3h-2l-1-1h-1l-2-3-1-5h-2l-1 2-3 4-3 4-4 2-3 2h-6l-2 8-8 30-3 11-4 15-3 8v1h-1v1l-6 16v4l2 2 18 29 1 3-1 3-1 2-4 7-5 5-1 1-2 1h-2l1 4v1l-3 3-4 3-6 4-2-3-14-33h-1l-2 3v2l9 25 2 5 1 1 3 7v3l-1 1v1l-5 4-7 3-7 3-1-1v-2l-3-16-4-19h-1l-1 1v1l6 38-1 1-1 1-7 1h-13l-7-1-1-1v-2l5-34v-5h-1l-8 33v4h-1l-6-2-5-3-6-4-2-3v-3l1-4-1-1h-3l-3-2-6-4-5-5v-1l1-3v-1h-1l-2-1-8-8-2-4-2-3v-1l1-5 21-32 8 15 9 13 21 25 4 4 5 6 1-1V206l1-12-3-21 11 6 10 3 10 2 5 1h6l6-1 6-2 18 9 5 7 1 3 2 4 2 11 1 9 1 20v15l1 1h13l12-1 9-1 9-3 18-8 18-9 8-6 4-2 10-8 10-10 6-8 9-11 9-13 6-14z"/><path fill="#0d4166" d="m212 166 4 10 3 4 3 3 4 2h6l17-4v1l-23 14-1 1v2l2 4 3 4 4 3 3 1 3 1h6l7-3 7-4h1l-1 1-11 8-2 2-2 3-1 2v5l2 3 3 3 4 2 5 1 6-2 6-3 8-5 3-2-5 7-6 7-2 5v6l1 3 3 3 5 2 4 1-11 10-4 2-18-15 7-8h-1l-11 5-13-13h-1l1-3-1-1-6 3 2-2 1-1-1-2-1-2-6-8-6-7-1-1-2 1-1-1 1-2 1-1 13-23v-1h-10l-6 2-6 3-8-18-2-1-12 3 8-3v-1h-1l-13 1 18-3 2-1h2l17-3Z"/><path fill="#2784c0" d="m747 173 2 1 7 1 51 14h1v1l-1 7-2 5-3 4-1 2-3 2h-10l-8-2-1-1-8-3-34-12 7-19h3ZM201 192h-1l-3 2-5 1-20 8-16 5h-1l-7 2h-5l-3-1-5-4-3-5-2-6v-7l5-2 44-9 12-3 2 1 8 18Z"/><path fill="#1a71aa" d="m252 180 12 17 13 15 8 8 5 4 7 6 17 11 14 7 10 5 16 4 8 2h7l8 1h6l1 10 4 21 2 11-6-1-4-2-4-4-5-6v-1l-2-4v-1 1l-1 8-1 3-1 1-1 1h-2l-4-2-3-3-4-4-4-6-1-6v-10l1-7v-1l-1 1-4 17-2 5-4 2h-6l-4-3-4-2v-1l-1-4-1-4v-5l2-7 1-4v-1l1-2v-1l-1 1-7 12-5 7-2 1-2 1h-6l-5-3-3-3-2-4-1-2 1-3 3-9 1-1-1-1v1l-3 5-4 4-3 1-4 1-4-1-5-2-3-3-1-3v-6l2-5 6-7 5-7-3 2-8 5-6 3-6 2-5-1-4-2-3-3-2-3v-5l1-2 2-3 2-2 11-8 1-1h-1l-7 4-7 3h-6l-3-1-3-1-4-3-3-4-2-4v-2l1-1 23-14v-1h1l2-1Z"/><path fill="#2784c0" d="m210 211-1 1-1 2-15 9-11 7-17 9-3 1h-3l-5-2-5-4-4-5-3-7 25-11 25-12 7-3h1l2 1 3 7 5 7Z"/><path fill="#4ba1cf" d="m223 237-5 5-19 17-15 12h-1l-6-3-5-5-5-5-5-6v-1l1-1 15-10 8-7 9-7 14-11 2-1 1 1 6 7 6 8 1 2 1 2-1 1-2 2ZM727 214l10 9 15 12 3 2 11 8 11 7v1l-3 5-3 4-5 5-5 4-6 3h-1l-16-15-22-20-1-2-3-2v-1l15-20Z"/><path fill="#1a79b7" d="m243 251-16 23-18 22-1 1-6-3-6-4-4-5-2-6 1-1 1-2 5-5 1-1 31-32h1l13 13ZM711 241l16 17 17 16 2 3 1 3-1 3-1 3-2 3-5 4-7 5-2-1-6-7-15-18-14-20 14-13h1l2 2Z"/><path fill="#0f3856" d="m390 302 2 8-18-3-1 1 2 22 1 5 1 1 6 1 17 2 3 12-6 1h-12l-6-1h-1v1l3 21 1 2 2 2 3 1 3 1 4-1 5-1 5-3 5-6 2 5 1 3-2 5-2 5-4 5-4 4-3 1-4 1-8 1h-1l-1-1-3-3-2-1h-1l-2 3-3 4-6 3-2 1-4 1h-5l-5-1-6-3-2-2-2-3-1-6v-4l1-16-1-3v-4l1-18h-1l-7-1-8-2-11-4-4 19-8 32v-2h-1l2-18 1-8v-8l5-18-1-1-11-3-7-3-6-4h-1l-1 1-3 8-2 8-3 6-6 14-4 11-2 3h-1v1l-3 3-3 2-4 1h-4l-6-2-6-2-4-3-4-4-2-4-2-5v-2l1-3h-1l-4 4-4 2-4 1h-1l-10-3-5-2-4-3-6-6-1-1-1-3v-4l2-5 3-4v-1l5-5 9-10 8-11 6-6 2 5 2 3 3 2 9 6h1l2 1 2 1 2-1 4-6 21-37 3-5 4-2 11-10 4-1 3-1 4-4 3-5v-1l1 1-1 1-3 9-1 3 1 2 2 4 3 3 5 3h6l2-1 2-1 5-7 7-12 1-1v1l-1 2v1l-1 4-2 7v5l1 4 1 4v1l4 2 4 3h6l4-2 2-5 4-17 1-1v1l-1 7v10l1 6 4 6 4 4 3 3 4 2h2l1-1 1-1 1-3 1-8v-1 1l2 4v1l5 6 4 4 4 2 6 1Z"/><path fill="#1a71aa" d="m266 269-3 5-21 37-4 6-2 1-2-1-2-1h-1l-9-6-3-2-2-3-2-5 33-46 18 15Z"/><path fill="#1a79b7" d="m689 256 25 33 5 7 5 7-5 6-7 6-9 4h-2l-2-1-9-16-19-31 6-4 6-5 6-6Z"/><path fill="#0f3856" d="m607 283 5-1 5-1 8-4 3-2 12-4 4-2 4-4 4-3 4-1h3l3 2 9 8 19 31 9 16 2 1h2l9-4 7-6 5-6 4 3 4 4 19 22 3 6 3 6v1l-1 4-2 3-3 3-4 4-4 2-5 3-7 1h-7l-1-1-5-2-2-4h-1v1l1 5-1 4-2 4-3 4-6 4-6 3-7 1h-4l-4-2-3-2-3-3-4-7-3-7-2-5-2-7-3-4-2-3-1-9-4-9-15 6-6 2-5 1-1 1 6 17-2 2v1l2 12 2 14 1 6h-1l-9-30v-2l-2-8-2-9-9 3-9 2-8 2h-1l1 18-1 9v22h-1l-5-28v-18l-1-1-6 2h-20l-1 21-3 22-3 4-2 1-5 1h-3l-4-1-6-2-4-3-2-3-3-5-2-5v-3l-1-1-1 1v-1h1v-1l3-8 1 5 1 2 3 3 4 1 6 2h5l4-2 2-1 1-2 3-23h-5l-10 1-11-1 3-11h8l9-1 1-1 4-1 3-1 1-3 1-13 1-12v-1l-3 1-8 2h-9l2-8h6l3-2 4-2 3-4 3-4 1-2h2l1 5 2 3h1l1 1h2l5-3 5-5 4-6 2-6v-6l-1-13h1l3 16 4 8 1 1h4l5-1Z"/><path fill="#0d4166" d="m392 310 8 29-17-2-6-1-1-1-1-5-2-22 1-1 18 3ZM535 341l8-30h9l8-2 3-1v1l-1 12-1 13-1 3-3 1-4 1-1 1-9 1h-8Z"/><path fill="#4ba1cf" d="m303 353-2 3h-2l-3-1h-1l-1-1-8-2-5-3-3-3-2-3v-2l2-8 3-8 1-1h1l6 4 7 3 11 3 1 1-5 18ZM661 344l-2 4-8 4-11 4h-3l-1-1-1-2-6-17 1-1 5-1 6-2 15-6 4 9 1 9ZM339 363l-1 2-2 1-4 1-8-1-7-1-4-2-2-3-2-3 4-19 11 4 8 2 7 1h1l-1 18ZM628 358l-2 4-5 3-7 2-7 1h-6l-1-2-2-2-1-18h1l8-2 9-2 9-3 2 9 2 8v2Z"/><path fill="#0d4166" d="M276 341v2l2 3 3 3 5 3 8 2 1 1h1l3 1h2l2-3v8l-1 8-2 18-3 5-3 3h-1l-5 2h-3l-7-2-7-2-5-4-3-5-2-3v-6l2-3 4-11 6-14 3-6ZM661 344l2 3 3 4 2 7 2 5 3 7 4 7-1 6-2 5-2 2-3 3-2 1-5 2-5 2h-4l-4-1-7-2-2-2-1-2v-1h-1l-2 5-2 4-4 2-4 2-5 2h-11l-6-2-5-3-1-2-1-1v1l-2 2-1 2-2 1-8 3h-7l-6-2-7-5-4-6 3-22 12 1 11-1 3-2 2-2 5 28h1v-22l1-9 2 2 1 2h6l7-1 7-2 5-3 2-4 9 30h1l-1-6-2-14-2-12v-1l2-2 1 2 1 1h3l11-4 8-4 2-4Z"/><path fill="#1a71aa" d="m591 367-2 2-3 2-11 1-12-1 1-21h20l6-2 1 1v18Z"/><path fill="#0d4166" d="m409 368-5 6-5 3-5 1-4 1-3-1-3-1-2-2-1-2-3-21v-1h1l6 1h12l6-1 6 17ZM528 367l4-15 11 1 10-1h5l-3 23-1 2-2 1-4 2h-5l-6-2-4-1-3-3-1-2-1-5ZM339 363v4l1 3-1 16v4l1 6-3 4-3 2-2 1-7 1h-7l-5-1-4-2-3-2-3-3-1-3-1-4 8-32 2 3 2 3 4 2 7 1 8 1 4-1 2-1 1-2Z"/><path fill="#0e314b" d="M261 375v1-1l-1 1v-1h1Z"/><path fill="#0f3856" d="m549 444-7 5-7 6-3 2-1 1 3 6v1l-1 1-7 4-7 4-6 2h-1v1l2 7v2l-2 3-1 1-4 3-10 3-9 2h-1v1l2 12 2 12 1 1h2l-3 2-1 3-1 2-3-25h-1l-10 2h-9l-8-1-7-2h-1v1l-3 18v9l-3-5v-4l5-26-1-1h-6l-9-3-9-4h-1v-2l-1-3v-3l2-6-1-1-6-1-6-3-7-5-1-1v-2l2-5v-1l-4-2-4-3-9-8 11-16-1 5v1l2 3 2 4 8 8 2 1h1v1l-1 3v1l5 5 6 4 3 2h3l1 1-1 4v3l2 3 6 4 5 3 6 2h1v-4l8-33h1v5l-5 34v2l1 1 7 1h13l7-1 1-1 1-1-6-38v-1l1-1h1l4 19 3 16v2l1 1 7-3 7-3 5-4v-1l1-1v-3l-3-7-1-1h3l1 1h4l6-4 4-3 3-3v-1l-1-4h2l2-1 1-1 5-5 4-7 1-2 1-3-1-3z"/><path fill="#0d4166" d="M511 465h-4l-1-1h-3l-2-5-9-25v-2l2-3h2l13 33 2 3Z"/><path fill="#1a71aa" d="m549 444 14 22-1 5-2 3-5 4-7 4-3 1h-3v2l1 4h1v1l-1 1-9 4-7 3-9 1-1 4v1l2 4v4l-1 2-1 1-5 3-11 4-7 2h-2l-1-1-2-12-2-12v-1h1l9-2 10-3 4-3 1-1 2-3v-2l-2-7v-1h1l6-2 7-4 7-4 1-1v-1l-3-6 1-1 3-2 7-6 7-5Z"/><path fill="#1a79b7" d="m388 444 9 8 4 3 4 2v1l-2 5v2l1 1 7 5 6 3 6 1 1 1-2 6v1l-4 10-2 3-2 2-9-2-6-2-5-2-1-3 1-6h-3l-4-1-5-3-4-3-3-5-1-5 14-22Z"/><path fill="#0e314b" d="m374 466 1 5 3 5 4 3 5 3 4 1h3l-1 6 1 3 4 2 7 2 9 2 4 1-1 8v5l1 3 2 2 6 3 9 3 9 1v4l3 5 17 4h4l10-1 10-3 1-1v-1l1-2 1-3 3-2 7-2 11-4 5-3 1-1 1-2v-4l-2-4v-1l1-4 9-1 7-3 9-4 1-1v-1h-1l-1-4v-2h3l3-1 7-4 5-4 2-3 1-5 11 16-5 5-4 5-5 4-6 3h-1l-1 1v1l3 5-3 1-2 1-7 3-8 4-10 2-1 1 3 10v1l-10 4-10 3-6 2-7 1 2 9 3 9 2 2 3 1 5-1h2l10-4 5-2 4-4 1-2-1-5v-2l1-2v-1l10-1 8-3 6-4 2-3 1-3 1-2h1l1 4 2 1h3-4v1l7 17v2l-7 4-7 4-6 2-7 2h-7l-1 1 4 14v2l-5 2-11 5-2 1-10 2h-6l-6-2-3-16-2-17-1-1-9 3-10 1-6 1-7-1-8-2-9-3v1l-1 3-5 31-7 2h-6l-4-1h-1l-11-4-10-5v-1l4-15-1-1h-5l-7-2-7-2-7-4-6-4-1-1v-2l6-16v-1h1l1-4h1l2 3 2 3 6 4 8 4 9 1h2l1-1 1-4h1l-1 4-1 1-1 1-1 1 1 1v6l1 3 1 3 4 2 5 3 7 1 8 1h1l1-1 4-6 2-6 1-6v-1l-7-1-7-2-16-6-1-1h-1l3-11-1-1-9-3-9-4-11-4 2-6v-1l-6-3-4-3-4-3-7-7 11-17Z"/><path fill="#1a71aa" d="M422 482v3l1 3v2h1l9 4 9 3h6l1 1-5 26-9-1-9-3-6-3-2-2-1-3v-5l1-8-4-1 2-2 2-3 4-10v-1Z"/><path fill="#2784c0" d="m574 482 15 24 4 7v1l-2 4-5 4-3 2-5 1-4-1-4-1-4-3-4-3-3-3-2-4-2-4-3-5v-1l1-1h1l6-3 5-4 4-5 5-5ZM382 506l-3 6-3 3-5 5-5 4-4 1h-4l-6-2-5-3-2-2-1-4v-1l6-10 8-14 5-6 7 7 4 3 4 3 6 3v1l-2 6Z"/><path fill="#1a71aa" d="M489 531v1l-1 1-10 3-10 1h-4l-17-4v-8l3-19v-1h1l7 2 8 1h9l10-2h1l3 25ZM578 525l-5 1h-10l-2-1-1-4h-1l-1 2-1 3-2 3-6 4-8 3-10 1v1l-1 2v2l1 5-1 2-4 4-5 2-10 4h-2l-5 1-3-1-2-2-3-9-2-9 7-1 6-2 10-3 10-4v-1l-3-10 1-1 10-2 8-4 7-3 2-1 3-1 2 4 2 4 3 3 4 3 4 3 4 1 4 1ZM374 526h-11l-5-1h4l4-1 5-4 5-5 3-3 3-6 11 4 9 4 9 3 1 1-3 11h1l1 1 16 6 7 2 7 1v1l-1 6-2 6-4 6-1 1h-1l-8-1-7-1-5-3-4-2-1-3-1-3v-6l-1-1 1-1 1-1 1-1 1-4h-1l-1 4-1 1h-2l-9-1-8-4-6-4-2-3-2-3h-1l-1 4h-1Z"/><path fill="#0d4166" d="M498 583v5l-3 5-4 5-4 3-9 6-10 4h-1l-9-4-7-5-6-4-4-5-2-3-2-3v-4l5-31 1-3v-1l9 3 8 2 7 1 6-1 10-1 9-3 1 1 2 17 3 16Z"/><clipPath id="b"><path d="m252 306-5 10-2 4 1 5 1 3 3 2 10 6 5 1h4l2-2 6-14 8-18 5-19v-2l-2-2-16-8h-2l-9 17-9 17Zm409 17 4 10 3 5 2 1h2l6-1 5-3 6-3 3-4 1-2v-4l-8-16-9-17-8-14-1-1h-3l-14 8-2 1-1 1v1l3 9 4 12 4 10 2 5 1 2Z"/></clipPath><g fill="none" stroke="#3389bd" stroke-width="3" clip-path="url(#b)"><path d="m277 321-12-6-7-4-6-5M685 306l-9 8-7 5-8 4" vector-effect="non-scaling-stroke"/></g><path fill="#4ba1cf" d="M843 104h2v1h-1l-1-1Z"/><path fill="#2784c0" d="M795 222v1l-3 6-5 6-5 4h-1l-3 1h-4l-4-1-16-9-18-12-4-2-3-2-1-1v-2l7-14 1-1 14 6 35 16 10 4Z"/><ellipse fill="#0d4166" rx="1.1" ry=".5" transform="rotate(-177 422 105)"/><path fill="#1a71aa" d="m277 321-12-6-7-4-6-5 9-17 9-17h2l16 8 2 2v2l-5 19-8 18ZM685 306l-9 8-7 5-8 4-1-2-2-5-4-10-4-12-3-9v-1l1-1 2-1 14-8h3l1 1 8 14 9 17ZM317 293l-5 22-1 2h-1l-3-1-8-2-8-4-3-1v-2l7-22 1-1h1l20 8v1ZM641 286l3 7 5 15v1l-1 1-11 5-10 3h-1l-4-15-2-5-1-3v-1l21-8h1ZM322 294l21 8 1 1-2 21-1 1h-5l-6-1-12-4-1-1v-1l5-24ZM615 296l4 17v8l-4 1-9 3-10 1-1-5-1-18 1-1 20-6Z"/><ellipse fill="#4ba1cf" rx="1.3" ry=".5" transform="rotate(-39 502 -66)"/><ellipse fill="#4ba1cf" rx="1.4" ry=".5" transform="rotate(-144 441 25)"/><path fill="#1a71aa" d="M347 303h1l11 2 10 1 1 1v21h-3l-8 1-7-1-5-1-1-1 1-23ZM590 303l1 1v23l-1 1-10 1h-12l-2-1v-20l1-1 23-4Z"/><path fill="#4ba1cf" d="m252 306 6 5 7 4 12 6-6 14-2 2h-4l-5-1-10-6-3-2-1-3-1-5 2-4 5-10ZM685 306l8 16v4l-1 2-3 4-6 3-5 3-6 1h-2l-2-1-3-5-4-10 8-4 7-5 9-8Z"/><path fill="#1a71aa" d="m372 350 2 18-1 2-7 1-9 1-6-1-2-1-2-1-1-2v-19l13 2 13-1v1Z"/></svg>