<svg width="644" height="564" viewBox="0 0 644 564" fill="none" xmlns="http://www.w3.org/2000/svg">
<path d="M320.248 213.144L284.431 320.906C284.225 321.524 284.222 322.193 284.422 322.813L320.238 434.166C321.16 437.031 325.226 436.996 326.098 434.116L359.808 322.762C359.987 322.173 359.984 321.544 359.8 320.956L326.09 213.196C325.2 210.352 321.188 210.316 320.248 213.144Z" fill="url(#paint0_linear_199_673)"/>
<path d="M274.333 337.27L235.387 443.252C235.14 443.925 235.136 444.664 235.376 445.339L274.322 554.853C275.299 557.602 279.198 557.565 280.124 554.799L316.779 445.284C316.994 444.642 316.99 443.947 316.769 443.307L280.115 337.326C279.171 334.599 275.328 334.562 274.333 337.27Z" fill="#F4E9FD" fill-opacity="0.8"/>
<path d="M275.005 80.5714H154.846C152.753 80.5714 151.274 82.6193 151.932 84.6057L189.034 196.638C189.45 197.895 190.624 198.743 191.947 198.743H312.834C314.934 198.743 316.414 196.681 315.742 194.692L277.913 82.6589C277.492 81.4113 276.322 80.5714 275.005 80.5714Z" fill="#F4E9FD" fill-opacity="0.8"/>
<path d="M192.701 204.114H312.86C314.953 204.114 316.432 206.162 315.774 208.149L278.672 320.181C278.256 321.437 277.082 322.286 275.759 322.286H154.872C152.772 322.286 151.292 320.224 151.964 318.234L189.793 206.202C190.214 204.954 191.384 204.114 192.701 204.114Z" fill="#F4E9FD" fill-opacity="0.8"/>
<path d="M170.11 0H53.4542C50.4737 0 49.2421 3.81963 51.6612 5.56064L146.551 73.8545C147.073 74.2304 147.701 74.4327 148.344 74.4327H264.649C267.626 74.4327 268.86 70.6188 266.446 68.8752L171.907 0.581299C171.384 0.203402 170.755 0 170.11 0Z" fill="#F4E9FD" fill-opacity="0.8"/>
<path d="M37.6434 5.99699L0.871988 121.044C0.468584 122.306 0.920642 123.685 1.99312 124.463L98.8563 194.744C100.538 195.963 102.92 195.196 103.573 193.224L141.072 79.9975C141.489 78.7377 141.05 77.3524 139.982 76.5638L42.391 4.46275C40.7006 3.21385 38.2833 3.99502 37.6434 5.99699Z" fill="url(#paint1_linear_199_673)"/>
<path d="M100.672 203.524L8.23295 136.488C5.86413 134.77 2.66339 137.027 3.48514 139.835L35.5764 249.51C35.7714 250.176 36.1866 250.757 36.7541 251.157L132.366 318.544C134.773 320.24 137.956 317.902 137.057 315.098L101.793 205.072C101.593 204.45 101.201 203.907 100.672 203.524Z" fill="#F4E9FD" fill-opacity="0.8"/>
<path d="M106.778 203.899L142.334 313.385C143.25 316.204 147.235 316.216 148.167 313.402L184.427 203.916C184.632 203.297 184.635 202.629 184.434 202.008L148.174 89.7065C147.256 86.863 143.229 86.8744 142.327 89.7231L106.771 202.025C106.577 202.635 106.58 203.291 106.778 203.899Z" fill="#F4E9FD" fill-opacity="0.8"/>
<path d="M143.755 331.285L107.447 439.481C106.78 441.469 108.26 443.527 110.357 443.527H225.192C226.477 443.527 227.626 442.726 228.071 441.52L268.009 333.324C268.749 331.32 267.266 329.192 265.13 329.192H146.665C145.346 329.192 144.174 330.034 143.755 331.285Z" fill="#F4E9FD" fill-opacity="0.8"/>
<path d="M231.87 451.758L268.177 559.954C268.844 561.943 267.365 564 265.267 564H150.433C149.147 564 147.998 563.199 147.553 561.993L107.615 453.798C106.875 451.793 108.358 449.665 110.495 449.665H228.96C230.279 449.665 231.45 450.508 231.87 451.758Z" fill="url(#paint2_linear_199_673)"/>
<path d="M369.863 337.27L408.809 443.252C409.057 443.925 409.06 444.664 408.82 445.339L369.875 554.853C368.897 557.602 364.998 557.565 364.072 554.799L327.417 445.284C327.202 444.642 327.206 443.947 327.427 443.307L364.082 337.326C365.025 334.599 368.868 334.562 369.863 337.27Z" fill="#F4E9FD" fill-opacity="0.8"/>
<path d="M369.191 80.5714H489.35C491.443 80.5714 492.922 82.6193 492.264 84.6057L455.162 196.638C454.746 197.895 453.572 198.743 452.248 198.743H331.362C329.262 198.743 327.782 196.681 328.454 194.692L366.283 82.6589C366.704 81.4113 367.874 80.5714 369.191 80.5714Z" fill="#F4E9FD" fill-opacity="0.8"/>
<path d="M451.495 204.114H331.335C329.243 204.114 327.764 206.162 328.422 208.149L365.523 320.181C365.939 321.437 367.114 322.286 368.437 322.286H489.324C491.424 322.286 492.904 320.224 492.232 318.234L454.403 206.202C453.981 204.954 452.811 204.114 451.495 204.114Z" fill="#F4E9FD" fill-opacity="0.8"/>
<path d="M474.086 0H590.742C593.723 0 594.954 3.81963 592.535 5.56064L497.645 73.8545C497.123 74.2304 496.496 74.4327 495.852 74.4327H379.548C376.57 74.4327 375.337 70.6188 377.75 68.8752L472.289 0.581299C472.812 0.203402 473.441 0 474.086 0Z" fill="#F4E9FD" fill-opacity="0.8"/>
<path d="M606.553 5.99699L643.324 121.044C643.727 122.306 643.275 123.685 642.203 124.463L545.34 194.744C543.659 195.963 541.276 195.196 540.623 193.224L503.124 79.9975C502.707 78.7377 503.146 77.3524 504.214 76.5638L601.805 4.46275C603.495 3.21385 605.913 3.99502 606.553 5.99699Z" fill="url(#paint3_linear_199_673)"/>
<path d="M543.524 203.524L635.963 136.488C638.332 134.77 641.533 137.027 640.711 139.835L608.62 249.51C608.425 250.176 608.009 250.757 607.442 251.157L511.83 318.544C509.423 320.24 506.24 317.902 507.139 315.098L542.403 205.072C542.603 204.45 542.995 203.907 543.524 203.524Z" fill="#F4E9FD" fill-opacity="0.8"/>
<path d="M537.419 203.899L501.862 313.385C500.946 316.204 496.961 316.216 496.029 313.402L459.769 203.916C459.564 203.297 459.561 202.629 459.762 202.008L496.022 89.7065C496.94 86.863 500.967 86.8744 501.869 89.7231L537.425 202.025C537.619 202.635 537.616 203.291 537.419 203.899Z" fill="#F4E9FD" fill-opacity="0.8"/>
<path d="M500.441 331.285L536.749 439.481C537.416 441.469 535.936 443.527 533.839 443.527H419.004C417.719 443.527 416.57 442.726 416.125 441.52L376.187 333.324C375.447 331.32 376.93 329.192 379.066 329.192H497.531C498.85 329.192 500.022 330.034 500.441 331.285Z" fill="#F4E9FD" fill-opacity="0.8"/>
<path d="M412.326 451.758L376.019 559.954C375.351 561.943 376.831 564 378.929 564H493.763C495.048 564 496.197 563.199 496.643 561.993L536.581 453.798C537.32 451.793 535.838 449.665 533.701 449.665H415.236C413.917 449.665 412.746 450.508 412.326 451.758Z" fill="url(#paint4_linear_199_673)"/>
<defs>
<linearGradient id="paint0_linear_199_673" x1="285.134" y1="215.209" x2="406.483" y2="250.118" gradientUnits="userSpaceOnUse">
<stop stop-color="#6F35B5"/>
<stop offset="1" stop-color="#2B0572"/>
</linearGradient>
<linearGradient id="paint1_linear_199_673" x1="2.32269" y1="7.40183" x2="177.226" y2="117.318" gradientUnits="userSpaceOnUse">
<stop stop-color="#6F35B5"/>
<stop offset="1" stop-color="#2B0572"/>
</linearGradient>
<linearGradient id="paint2_linear_199_673" x1="266.51" y1="451.78" x2="152.588" y2="589.093" gradientUnits="userSpaceOnUse">
<stop stop-color="#6F35B5"/>
<stop offset="1" stop-color="#2B0572"/>
</linearGradient>
<linearGradient id="paint3_linear_199_673" x1="641.873" y1="7.40183" x2="466.97" y2="117.318" gradientUnits="userSpaceOnUse">
<stop stop-color="#6F35B5"/>
<stop offset="1" stop-color="#2B0572"/>
</linearGradient>
<linearGradient id="paint4_linear_199_673" x1="377.686" y1="451.78" x2="491.608" y2="589.093" gradientUnits="userSpaceOnUse">
<stop stop-color="#6F35B5"/>
<stop offset="1" stop-color="#2B0572"/>
</linearGradient>
</defs>
</svg>

